<?xml version="1.0" encoding="UTF-8"?>
<svg id="Layer_1" xmlns="http://www.w3.org/2000/svg" version="1.1" viewBox="0 0 1610.9 200.25">
  <!-- Generator: Adobe Illustrator 29.8.5, SVG Export Plug-In . SVG Version: 2.1.1 Build 2)  -->
  <defs>
    <style>
      .st0 {
        fill: #292419;
      }
    </style>
  </defs>
  <g>
    <path class="st0" d="M36.17,130.13H0V4.06h39.55l34.31,48L106.64,4.06h38.53v126.08h-36.17v-51.55l.68-20.11-34.82,47.83h-3.55l-35.83-48.34.68,20.62v51.55Z"/>
    <path class="st0" d="M242.52,114.25h-45.46l-5.58,15.89h-38.36L202.29,4.06h36.34l49.35,126.08h-40.05l-5.41-15.89ZM233.22,86.87l-13.18-38.7-13.52,38.7h26.7Z"/>
    <path class="st0" d="M332.93,95.49v34.65h-37.18V4.06h41.91c25.69,0,55.77,5.58,55.77,45.8,0,35.15-32.28,45.63-55.94,45.63h-4.56ZM332.93,35.49v29.58h6.76c10.99,0,17.41-4.73,17.41-15.04,0-10.99-6.59-14.53-17.41-14.53h-6.76Z"/>
    <path class="st0" d="M440.24,95.49v34.65h-37.18V4.06h41.91c25.69,0,55.77,5.58,55.77,45.8,0,35.15-32.28,45.63-55.94,45.63h-4.56ZM440.24,35.49v29.58h6.76c10.99,0,17.41-4.73,17.41-15.04,0-10.99-6.59-14.53-17.41-14.53h-6.76Z"/>
    <path class="st0" d="M510.38,4.06h37.18v126.08h-37.18V4.06Z"/>
    <path class="st0" d="M599.61,66.25v63.88h-37.18V4.06h35.32l47.66,63.38V4.06h37.01v126.08h-34.65l-48.17-63.88Z"/>
    <path class="st0" d="M764.21,134.19c-39.72,0-71.15-30.08-71.15-67.26S724.5,0,764.21,0c18.08,0,35.15,6.59,46.82,16.22l-21.97,27.72c-5.75-5.75-15.21-9.97-24.84-9.97-19.1,0-33.97,14.53-33.97,33.12s14.87,33.13,33.8,33.13c10.48,0,19.27-6.42,23.83-16.06h-24.34l10.48-27.72h54.08v9.13c0,39.55-28.22,68.62-63.88,68.62Z"/>
    <path class="st0" d="M947.24,130.13h-40.22l-47.15-126.08h40.22l28.22,81.8,28.73-81.8h37.52l-47.32,126.08Z"/>
    <path class="st0" d="M1002.33,4.06h37.18v126.08h-37.18V4.06Z"/>
    <path class="st0" d="M1144.8,41.07c-6.59-4.39-14.7-6.25-23.32-6.25-19.44,0-34.31,14.37-34.31,32.11s14.87,32.45,34.31,32.45c8.62,0,16.73-1.86,23.32-6.25v35.15c-7.77,3.72-16.56,5.07-25.86,5.07-40.56,0-68.96-29.75-68.96-66.42S1078.38.84,1118.94.84c9.29,0,18.08,1.35,25.86,5.07v35.15Z"/>
    <path class="st0" d="M1172.85,37.52h-20.45V4.06h77.91v33.46h-20.45v92.62h-37.01V37.52Z"/>
    <path class="st0" d="M1375.66,66.93c0,37.18-31.44,67.26-70.98,67.26s-71.15-30.08-71.15-67.26S1264.96,0,1304.67,0s70.98,29.91,70.98,66.93ZM1270.7,67.1c0,18.59,14.87,33.13,33.97,33.13s33.97-14.7,33.97-33.13-14.87-33.12-33.97-33.12-33.97,14.53-33.97,33.12Z"/>
    <path class="st0" d="M1424.16,90.92h-1.01v39.21h-37.01V4.06h40.22c26.36,0,57.12,5.41,57.12,44.62,0,16.06-9.97,27.21-22.99,33.97l31.77,47.49h-43.77l-24.34-39.21ZM1423.14,35.49v29.91h5.75c11.15,0,18.42-4.73,18.42-15.89s-7.77-14.03-18.59-14.03h-5.58Z"/>
    <path class="st0" d="M1566.62,88.05v42.08h-37.01v-41.74l-44.28-84.33h40.39l22.99,50.36,25.01-50.36h37.18l-44.28,84Z"/>
  </g>
  <g>
    <path class="st0" d="M3.94,177.98v-22.42h4.66v22.03c0,6.14,2.69,9.31,7.58,9.31s7.63-3.17,7.63-9.31v-22.03h4.66v22.42c0,8.5-4.56,13.34-12.29,13.34s-12.24-4.85-12.24-13.34Z"/>
    <path class="st0" d="M34.13,185.04h4.61v5.71h-4.61v-5.71Z"/>
    <path class="st0" d="M44.3,190.75v-4.37c2.64.24,4.56.34,6.14.34,4.94,0,7.39-1.78,7.39-5.38,0-2.4-1.15-4.13-4.32-6.14l-3.79-2.4c-3.7-2.4-5.52-5.23-5.52-8.79,0-5.52,4.08-8.83,11.04-8.83,1.44,0,3.02.14,4.94.38v4.18c-1.82-.24-3.41-.38-4.8-.38-4.32,0-6.53,1.58-6.53,4.56,0,2.06,1.1,3.6,3.84,5.33l3.46,2.16c4.37,2.78,6.38,5.9,6.38,9.89,0,6.24-4.42,9.84-12,9.84-1.73,0-3.6-.1-6.24-.38Z"/>
    <path class="st0" d="M67.39,185.04h4.61v5.71h-4.61v-5.71Z"/>
    <path class="st0" d="M97.49,155.56h4.46l12.15,35.19h-4.85l-2.45-7.39h-14.11l-2.45,7.39h-4.8l12.05-35.19ZM105.41,179.28l-5.71-17.23-5.66,17.23h11.38Z"/>
    <path class="st0" d="M125.81,165.4h2.83v4.03h-2.45c-2.69,0-3.79,1.01-3.79,3.89v17.42h-4.42v-17.38c0-5.47,2.59-7.97,7.82-7.97Z"/>
    <path class="st0" d="M140.83,164.83c3.79,0,6.43,1.73,7.78,4.32,1.34-2.59,4.03-4.32,7.82-4.32,5.81,0,9.27,4.03,9.27,10.56v15.36h-4.42v-15.36c0-3.98-1.73-6.38-5.09-6.38s-5.38,2.5-5.38,6.77v14.98h-4.42v-14.98c0-4.27-1.92-6.77-5.33-6.77s-5.09,2.4-5.09,6.38v15.36h-4.42v-15.36c0-6.53,3.41-10.56,9.27-10.56Z"/>
    <path class="st0" d="M178.51,189.4l-10.37-24h4.94l7.73,18.72,7.15-18.72h4.66l-13.83,34.85h-4.66l4.37-10.85Z"/>
    <path class="st0" d="M206.64,190.75v-4.37c2.64.24,4.56.34,6.14.34,4.94,0,7.39-1.78,7.39-5.38,0-2.4-1.15-4.13-4.32-6.14l-3.79-2.4c-3.7-2.4-5.52-5.23-5.52-8.79,0-5.52,4.08-8.83,11.04-8.83,1.44,0,3.02.14,4.94.38v4.18c-1.82-.24-3.41-.38-4.8-.38-4.32,0-6.53,1.58-6.53,4.56,0,2.06,1.1,3.6,3.84,5.33l3.46,2.16c4.37,2.78,6.38,5.9,6.38,9.89,0,6.24-4.42,9.84-12,9.84-1.73,0-3.6-.1-6.24-.38Z"/>
    <path class="st0" d="M228.52,178.12c0-7.68,5.66-13.3,13.06-13.3s13.01,5.62,13.01,13.3-5.66,13.2-13.01,13.2-13.06-5.57-13.06-13.2ZM241.58,187.15c4.9,0,8.54-3.79,8.54-9.03s-3.65-9.12-8.54-9.12-8.64,3.79-8.64,9.12,3.7,9.03,8.64,9.03Z"/>
    <path class="st0" d="M269.32,191.32c-6.24,0-9.98-3.98-9.98-10.71v-15.22h4.42v15.07c0,4.32,1.97,6.67,5.57,6.67s5.62-2.35,5.62-6.67v-15.07h4.42v15.22c0,6.72-3.7,10.71-10.03,10.71Z"/>
    <path class="st0" d="M282.76,165.4h4.85l7.15,19.44,7.15-19.44h4.61l-9.7,25.35h-4.27l-9.79-25.35Z"/>
    <path class="st0" d="M307.87,178.17c0-7.58,5.38-13.25,12.72-13.25,6.43,0,12.19,4.37,12.05,13.73h-20.64c.24,4.99,3.7,8.69,8.93,8.69,3.7,0,6.72-1.82,8.59-4.9l3.07,2.26c-2.21,3.46-6.05,6.53-11.71,6.53-7.78,0-13.01-5.62-13.01-13.06ZM328.32,175.34c-.82-4.51-3.98-6.67-7.78-6.67-4.27,0-7.39,2.83-8.3,6.67h16.08Z"/>
    <path class="st0" d="M347.47,164.83c6.24,0,9.98,3.98,9.98,10.71v15.22h-4.42v-15.07c0-4.32-1.97-6.67-5.57-6.67s-5.62,2.35-5.62,6.67v15.07h-4.42v-15.22c0-6.72,3.7-10.71,10.03-10.71Z"/>
    <path class="st0" d="M363.69,153.74h4.42v7.1h-4.42v-7.1ZM363.69,165.4h4.42v25.35h-4.42v-25.35Z"/>
    <path class="st0" d="M382.22,165.4h2.83v4.03h-2.45c-2.69,0-3.79,1.01-3.79,3.89v17.42h-4.42v-17.38c0-5.47,2.59-7.97,7.82-7.97Z"/>
    <path class="st0" d="M401.37,155.56h4.8l12.05,21.27,12.05-21.27h4.7v35.19h-4.42v-27.31l-10.9,19.39h-2.93l-10.94-19.39v27.31h-4.42v-35.19Z"/>
    <path class="st0" d="M440.59,178.08c0-7.73,5.62-13.15,12.58-13.15,3.79,0,7.2,1.63,8.98,4.32l.05-3.84h3.98v25.35h-3.98l-.05-3.84c-1.78,2.69-5.18,4.32-8.98,4.32-6.96,0-12.58-5.42-12.58-13.15ZM453.64,187.1c4.66,0,8.45-3.22,8.45-9.02s-3.79-9.07-8.45-9.07c-4.94,0-8.64,3.75-8.64,9.07s3.7,9.02,8.64,9.02Z"/>
    <path class="st0" d="M472.65,165.4h3.94l.05,3.89c1.78-2.74,5.23-4.37,9.02-4.37,6.91,0,12.58,5.42,12.58,13.15s-5.66,13.15-12.58,13.15c-3.55,0-6.86-1.49-8.74-3.94.1,1.87.14,3.79.14,5.62v7.34h-4.42v-34.85ZM485.08,187.1c5.04,0,8.69-3.74,8.69-9.02s-3.65-9.07-8.69-9.07c-4.61,0-8.4,3.26-8.4,9.07s3.79,9.02,8.4,9.02Z"/>
    <path class="st0" d="M502.22,190.75v-3.89c1.97.24,3.65.34,4.75.34,3.26,0,4.8-1.06,4.8-3.22,0-1.58-.91-2.74-3.26-4.27l-1.68-1.1c-3.31-2.16-4.8-4.22-4.8-6.96,0-4.03,3.12-6.53,8.3-6.53,1.1,0,2.5.1,3.89.29v3.55c-1.44-.14-2.54-.19-3.26-.19-3.02,0-4.61,1.01-4.61,2.83,0,1.34.96,2.4,3.31,3.94l1.68,1.1c3.46,2.26,4.94,4.37,4.94,7.3,0,4.46-3.36,7.1-9.12,7.1-1.25,0-3.07-.1-4.94-.29Z"/>
    <path class="st0" d="M541.82,153.74h1.3v4.13h-.67c-2.54,0-3.74,1.06-3.74,3.6v3.94h3.41v4.03h-3.41v21.31h-4.42v-21.31h-3.02v-4.03h3.02v-4.32c0-4.61,2.64-7.34,7.54-7.34Z"/>
    <path class="st0" d="M554.1,165.4h2.83v4.03h-2.45c-2.69,0-3.79,1.01-3.79,3.89v17.42h-4.42v-17.38c0-5.47,2.59-7.97,7.82-7.97Z"/>
    <path class="st0" d="M558.42,178.12c0-7.68,5.66-13.3,13.06-13.3s13.01,5.62,13.01,13.3-5.66,13.2-13.01,13.2-13.06-5.57-13.06-13.2ZM571.48,187.15c4.9,0,8.54-3.79,8.54-9.03s-3.65-9.12-8.54-9.12-8.64,3.79-8.64,9.12,3.7,9.03,8.64,9.03Z"/>
    <path class="st0" d="M598.5,164.83c3.79,0,6.43,1.73,7.78,4.32,1.34-2.59,4.03-4.32,7.82-4.32,5.81,0,9.27,4.03,9.27,10.56v15.36h-4.42v-15.36c0-3.98-1.73-6.38-5.09-6.38s-5.38,2.5-5.38,6.77v14.98h-4.42v-14.98c0-4.27-1.92-6.77-5.33-6.77s-5.09,2.4-5.09,6.38v15.36h-4.42v-15.36c0-6.53,3.41-10.56,9.27-10.56Z"/>
    <path class="st0" d="M642.9,169.43h-3.07v-4.03h3.07v-7.01l4.42-1.63v8.64h3.26v4.03h-3.26v21.31h-4.42v-21.31Z"/>
    <path class="st0" d="M655.29,153.74h4.42v9.55c0,1.68-.05,3.22-.1,4.75,1.44-2.06,3.79-3.22,6.82-3.22,5.62,0,8.88,3.89,8.88,10.61v15.31h-4.42v-15.03c0-4.37-1.92-6.72-5.57-6.72s-5.62,2.3-5.62,6.72v15.03h-4.42v-37.01Z"/>
    <path class="st0" d="M680.15,178.17c0-7.58,5.38-13.25,12.72-13.25,6.43,0,12.19,4.37,12.05,13.73h-20.64c.24,4.99,3.7,8.69,8.93,8.69,3.7,0,6.72-1.82,8.59-4.9l3.07,2.26c-2.21,3.46-6.05,6.53-11.71,6.53-7.78,0-13.01-5.62-13.01-13.06ZM700.6,175.34c-.82-4.51-3.98-6.67-7.78-6.67-4.27,0-7.39,2.83-8.3,6.67h16.08Z"/>
    <path class="st0" d="M723.06,155.56h18.15v4.32h-13.54v10.56h13.39v4.32h-13.39v11.67h13.78v4.32h-18.39v-35.19Z"/>
    <path class="st0" d="M756.85,191.32c-6.24,0-9.98-3.98-9.98-10.71v-15.22h4.42v15.07c0,4.32,1.97,6.67,5.57,6.67s5.62-2.35,5.62-6.67v-15.07h4.42v15.22c0,6.72-3.7,10.71-10.03,10.71Z"/>
    <path class="st0" d="M780.76,165.4h2.83v4.03h-2.45c-2.69,0-3.79,1.01-3.79,3.89v17.42h-4.42v-17.38c0-5.47,2.59-7.97,7.82-7.97Z"/>
    <path class="st0" d="M785.08,178.12c0-7.68,5.66-13.3,13.06-13.3s13.01,5.62,13.01,13.3-5.66,13.2-13.01,13.2-13.06-5.57-13.06-13.2ZM798.13,187.15c4.9,0,8.54-3.79,8.54-9.03s-3.65-9.12-8.54-9.12-8.64,3.79-8.64,9.12,3.7,9.03,8.64,9.03Z"/>
    <path class="st0" d="M816.18,165.4h3.94l.05,3.89c1.78-2.74,5.23-4.37,9.02-4.37,6.91,0,12.58,5.42,12.58,13.15s-5.66,13.15-12.58,13.15c-3.55,0-6.86-1.49-8.74-3.94.1,1.87.14,3.79.14,5.62v7.34h-4.42v-34.85ZM828.61,187.1c5.04,0,8.69-3.74,8.69-9.02s-3.65-9.07-8.69-9.07c-4.61,0-8.4,3.26-8.4,9.07s3.79,9.02,8.4,9.02Z"/>
    <path class="st0" d="M845.36,178.17c0-7.58,5.38-13.25,12.72-13.25,6.43,0,12.19,4.37,12.05,13.73h-20.64c.24,4.99,3.7,8.69,8.93,8.69,3.7,0,6.72-1.82,8.59-4.9l3.07,2.26c-2.21,3.46-6.05,6.53-11.71,6.53-7.78,0-13.01-5.62-13.01-13.06ZM865.81,175.34c-.82-4.51-3.98-6.67-7.78-6.67-4.27,0-7.39,2.83-8.3,6.67h16.08Z"/>
    <path class="st0" d="M873.78,178.08c0-7.73,5.62-13.15,12.58-13.15,3.79,0,7.2,1.63,8.98,4.32l.05-3.84h3.98v25.35h-3.98l-.05-3.84c-1.78,2.69-5.18,4.32-8.98,4.32-6.96,0-12.58-5.42-12.58-13.15ZM886.84,187.1c4.66,0,8.45-3.22,8.45-9.02s-3.79-9.07-8.45-9.07c-4.94,0-8.64,3.75-8.64,9.07s3.7,9.02,8.64,9.02Z"/>
    <path class="st0" d="M915.59,164.83c6.24,0,9.99,3.98,9.99,10.71v15.22h-4.42v-15.07c0-4.32-1.97-6.67-5.57-6.67s-5.62,2.35-5.62,6.67v15.07h-4.42v-15.22c0-6.72,3.7-10.71,10.03-10.71Z"/>
    <path class="st0" d="M948.61,159.88h-8.88v-4.32h22.37v4.32h-8.88v30.87h-4.61v-30.87Z"/>
    <path class="st0" d="M965.8,153.74h4.42v9.55c0,1.68-.05,3.22-.1,4.75,1.44-2.06,3.79-3.22,6.82-3.22,5.62,0,8.88,3.89,8.88,10.61v15.31h-4.42v-15.03c0-4.37-1.92-6.72-5.57-6.72s-5.62,2.3-5.62,6.72v15.03h-4.42v-37.01Z"/>
    <path class="st0" d="M990.66,178.17c0-7.58,5.38-13.25,12.72-13.25,6.43,0,12.19,4.37,12.05,13.73h-20.64c.24,4.99,3.7,8.69,8.93,8.69,3.7,0,6.72-1.82,8.59-4.9l3.07,2.26c-2.21,3.46-6.05,6.53-11.71,6.53-7.78,0-13.01-5.62-13.01-13.06ZM1011.11,175.34c-.82-4.51-3.98-6.67-7.78-6.67-4.27,0-7.39,2.83-8.3,6.67h16.08Z"/>
    <path class="st0" d="M1019.07,178.08c0-7.73,5.62-13.15,12.58-13.15,3.79,0,7.2,1.63,8.98,4.32l.05-3.84h3.98v25.35h-3.98l-.05-3.84c-1.78,2.69-5.18,4.32-8.98,4.32-6.96,0-12.58-5.42-12.58-13.15ZM1032.13,187.1c4.66,0,8.45-3.22,8.45-9.02s-3.79-9.07-8.45-9.07c-4.94,0-8.64,3.75-8.64,9.07s3.7,9.02,8.64,9.02Z"/>
    <path class="st0" d="M1052.43,169.43h-3.07v-4.03h3.07v-7.01l4.42-1.63v8.64h3.26v4.03h-3.26v21.31h-4.42v-21.31Z"/>
    <path class="st0" d="M1062.9,178.17c0-7.58,5.38-13.25,12.72-13.25,6.43,0,12.19,4.37,12.05,13.73h-20.64c.24,4.99,3.7,8.69,8.93,8.69,3.7,0,6.72-1.82,8.59-4.9l3.07,2.26c-2.21,3.46-6.05,6.53-11.71,6.53-7.78,0-13.01-5.62-13.01-13.06ZM1083.35,175.34c-.82-4.51-3.98-6.67-7.78-6.67-4.27,0-7.39,2.83-8.3,6.67h16.08Z"/>
    <path class="st0" d="M1100.39,165.4h2.83v4.03h-2.45c-2.69,0-3.79,1.01-3.79,3.89v17.42h-4.42v-17.38c0-5.47,2.59-7.97,7.82-7.97Z"/>
    <path class="st0" d="M1117.04,178.12c0-7.68,5.66-13.3,13.06-13.3s13.01,5.62,13.01,13.3-5.67,13.2-13.01,13.2-13.06-5.57-13.06-13.2ZM1130.1,187.15c4.9,0,8.54-3.79,8.54-9.03s-3.65-9.12-8.54-9.12-8.64,3.79-8.64,9.12,3.7,9.03,8.64,9.03Z"/>
    <path class="st0" d="M1156.5,153.74h1.3v4.13h-.67c-2.54,0-3.74,1.06-3.74,3.6v3.94h3.41v4.03h-3.41v21.31h-4.42v-21.31h-3.02v-4.03h3.02v-4.32c0-4.61,2.64-7.34,7.54-7.34Z"/>
    <path class="st0" d="M1172.43,173.18c0-10.75,8.07-18.19,18-18.19s18,7.44,18,18.19-8.07,18.15-18,18.15-18-7.39-18-18.15ZM1190.43,186.91c7.34,0,13.25-5.67,13.25-13.73s-5.9-13.73-13.25-13.73-13.2,5.67-13.2,13.73,5.86,13.73,13.2,13.73Z"/>
    <path class="st0" d="M1213.81,165.4h3.94l.05,3.89c1.78-2.74,5.23-4.37,9.02-4.37,6.91,0,12.58,5.42,12.58,13.15s-5.67,13.15-12.58,13.15c-3.55,0-6.86-1.49-8.74-3.94.1,1.87.14,3.79.14,5.62v7.34h-4.42v-34.85ZM1226.24,187.1c5.04,0,8.69-3.74,8.69-9.02s-3.65-9.07-8.69-9.07c-4.61,0-8.4,3.26-8.4,9.07s3.79,9.02,8.4,9.02Z"/>
    <path class="st0" d="M1242.99,178.17c0-7.58,5.38-13.25,12.72-13.25,6.43,0,12.19,4.37,12.05,13.73h-20.64c.24,4.99,3.7,8.69,8.93,8.69,3.7,0,6.72-1.82,8.59-4.9l3.07,2.26c-2.21,3.46-6.05,6.53-11.71,6.53-7.78,0-13.01-5.62-13.01-13.06ZM1263.44,175.34c-.82-4.51-3.98-6.67-7.78-6.67-4.27,0-7.39,2.83-8.3,6.67h16.08Z"/>
    <path class="st0" d="M1280.48,165.4h2.83v4.03h-2.45c-2.69,0-3.79,1.01-3.79,3.89v17.42h-4.42v-17.38c0-5.47,2.59-7.97,7.82-7.97Z"/>
    <path class="st0" d="M1284.8,178.08c0-7.73,5.62-13.15,12.58-13.15,3.79,0,7.2,1.63,8.98,4.32l.05-3.84h3.98v25.35h-3.98l-.05-3.84c-1.78,2.69-5.18,4.32-8.98,4.32-6.96,0-12.58-5.42-12.58-13.15ZM1297.86,187.1c4.66,0,8.45-3.22,8.45-9.02s-3.79-9.07-8.45-9.07c-4.94,0-8.64,3.75-8.64,9.07s3.7,9.02,8.64,9.02Z"/>
    <path class="st0" d="M1318.16,169.43h-3.07v-4.03h3.07v-7.01l4.42-1.63v8.64h3.26v4.03h-3.26v21.31h-4.42v-21.31Z"/>
    <path class="st0" d="M1330.54,153.74h4.42v7.1h-4.42v-7.1ZM1330.54,165.4h4.42v25.35h-4.42v-25.35Z"/>
    <path class="st0" d="M1340,178.12c0-7.68,5.66-13.3,13.06-13.3s13.01,5.62,13.01,13.3-5.67,13.2-13.01,13.2-13.06-5.57-13.06-13.2ZM1353.06,187.15c4.9,0,8.54-3.79,8.54-9.03s-3.65-9.12-8.54-9.12-8.64,3.79-8.64,9.12,3.7,9.03,8.64,9.03Z"/>
    <path class="st0" d="M1380.85,164.83c6.24,0,9.99,3.98,9.99,10.71v15.22h-4.42v-15.07c0-4.32-1.97-6.67-5.57-6.67s-5.62,2.35-5.62,6.67v15.07h-4.42v-15.22c0-6.72,3.7-10.71,10.03-10.71Z"/>
    <path class="st0" d="M1396.01,190.75v-3.89c1.97.24,3.65.34,4.75.34,3.26,0,4.8-1.06,4.8-3.22,0-1.58-.91-2.74-3.26-4.27l-1.68-1.1c-3.31-2.16-4.8-4.22-4.8-6.96,0-4.03,3.12-6.53,8.3-6.53,1.1,0,2.5.1,3.89.29v3.55c-1.44-.14-2.54-.19-3.26-.19-3.02,0-4.61,1.01-4.61,2.83,0,1.34.96,2.4,3.31,3.94l1.68,1.1c3.46,2.26,4.94,4.37,4.94,7.3,0,4.46-3.36,7.1-9.12,7.1-1.25,0-3.07-.1-4.94-.29Z"/>
    <path class="st0" d="M1415.17,184.75h4.85l-3.7,13.3h-3.31l2.16-13.3Z"/>
    <path class="st0" d="M1438.54,159.98h-3.07v-4.42h7.73v35.19h-4.66v-30.77Z"/>
    <path class="st0" d="M1473.15,166.89c0,3.84-1.58,7.15-3.84,10.85l-7.97,13.01h-5.38c2.93-4.27,5.71-8.54,8.26-12.77-1.3.43-2.69.62-4.03.62-6.53,0-11.18-4.71-11.18-11.42s5.04-11.91,12.14-11.91,12,4.8,12,11.62ZM1461.01,174.67c4.42,0,7.44-3.31,7.44-7.73s-3.02-7.44-7.39-7.44-7.39,3.12-7.39,7.58,3.07,7.58,7.34,7.58Z"/>
    <path class="st0" d="M1491.1,185.13h-16.13v-3.36l16.03-26.21h4.46v25.54h3.75v4.03h-3.75v5.62h-4.37v-5.62ZM1491.1,181.1v-18.1l-11.04,18.1h11.04Z"/>
    <path class="st0" d="M1518.46,185.13h-16.13v-3.36l16.03-26.21h4.46v25.54h3.75v4.03h-3.75v5.62h-4.37v-5.62ZM1518.46,181.1v-18.1l-11.04,18.1h11.04Z"/>
    <path class="st0" d="M1530.6,172.89h12.34v4.18h-12.34v-4.18Z"/>
    <path class="st0" d="M1562.52,185.13h-16.13v-3.36l16.03-26.21h4.46v25.54h3.75v4.03h-3.75v5.62h-4.37v-5.62ZM1562.52,181.1v-18.1l-11.04,18.1h11.04Z"/>
    <path class="st0" d="M1574.81,179.42c0-3.84,1.58-7.15,3.84-10.85l7.97-13.01h5.38c-2.93,4.27-5.71,8.54-8.26,12.77,1.3-.43,2.69-.62,4.03-.62,6.53,0,11.19,4.71,11.19,11.42s-5.04,11.91-12.15,11.91-12-4.8-12-11.62ZM1586.91,186.81c4.32,0,7.39-3.12,7.39-7.58s-3.07-7.58-7.34-7.58-7.44,3.31-7.44,7.73,3.02,7.44,7.39,7.44Z"/>
  </g>
</svg>